<svg xmlns="http://www.w3.org/2000/svg" width="111" height="100" fill="none"><path fill="#F02E2C" d="M97.125 60.754c0-2.88-2.543-5.237-5.65-5.237H80.171v10.475h11.302c3.108 0 5.651-2.357 5.651-5.238Zm-5.65 15.712H80.171v10.475h11.302c3.108 0 5.651-2.356 5.651-5.237 0-2.88-2.543-5.237-5.65-5.237ZM46.266 60.754H34.965v20.95h11.302c0 5.761 5.086 10.475 11.302 10.475H74.52v-41.9H57.57c-6.216 0-11.302 4.714-11.302 10.475Z"/><path fill="#F02E2C" d="M12.888 53.803c0-6.098 4.551-11.087 10.114-11.087h7.585c9.759 0 17.698-8.703 17.698-19.403 0-10.699-7.939-19.402-17.698-19.402H12.888c-2.78 0-5.056 2.494-5.056 5.543 0 3.05 2.275 5.544 5.056 5.544h17.699c4.197 0 7.585 3.714 7.585 8.315 0 4.602-3.388 8.316-7.585 8.316h-7.585c-11.176 0-20.227 9.923-20.227 22.174 0 12.252 9.051 22.175 20.227 22.175h10.113V64.89H23.002c-5.563 0-10.114-4.989-10.114-11.087Z"/></svg>