<svg xmlns="http://www.w3.org/2000/svg" width="94" height="100" fill="none"><g clip-path="url(#a)"><g clip-path="url(#b)"><path fill="#fff" d="M103.4-10H-9.4v120h112.8V-10Z"/><path fill="#fff" d="M103.4-10H-9.4v120h112.8V-10Z"/><path fill="#179D2E" d="M80.502 48.464h-19.28c-.871 0-1.733-.094-2.59-.271a12.884 12.884 0 0 1-2.487-.802 13.323 13.323 0 0 1-4.298-3.058 13.972 13.972 0 0 1-1.65-2.14 14.36 14.36 0 0 1-1.224-2.438 14.778 14.778 0 0 1-.754-2.646 14.764 14.764 0 0 1-.255-2.75V13.844a14.847 14.847 0 0 1 1.009-5.396c.333-.854.74-1.667 1.224-2.438a13.93 13.93 0 0 1 1.65-2.135 13.437 13.437 0 0 1 2.007-1.755A12.958 12.958 0 0 1 56.145.818a12.536 12.536 0 0 1 5.077-1.073h19.28c.872 0 1.733.088 2.585.27.857.178 1.684.449 2.487.803.808.354 1.572.786 2.291 1.302a13.478 13.478 0 0 1 2.013 1.755 14.392 14.392 0 0 1 2.874 4.573c.333.86.582 1.74.754 2.646.166.911.254 1.828.254 2.75v20.515c0 .927-.088 1.844-.255 2.75a14.778 14.778 0 0 1-.753 2.646 14.39 14.39 0 0 1-1.23 2.438c-.48.77-1.032 1.484-1.644 2.14a13.438 13.438 0 0 1-2.013 1.75 12.67 12.67 0 0 1-4.778 2.11c-.852.177-1.713.27-2.585.27ZM61.222 7.437a5.658 5.658 0 0 0-2.306.484 5.82 5.82 0 0 0-1.042.595 6.21 6.21 0 0 0-1.665 1.77 6.875 6.875 0 0 0-.9 2.307 7.197 7.197 0 0 0-.113 1.25V34.36c0 .422.039.839.112 1.25.079.412.196.813.348 1.203.147.391.333.76.553 1.11a6.211 6.211 0 0 0 1.665 1.766 5.814 5.814 0 0 0 3.348 1.083h19.28a5.56 5.56 0 0 0 1.175-.125 5.865 5.865 0 0 0 3.085-1.755c.284-.297.533-.62.749-.97.22-.348.406-.718.558-1.108a6.852 6.852 0 0 0 .46-2.454V13.844a6.755 6.755 0 0 0-.46-2.453 6.586 6.586 0 0 0-.558-1.105 5.658 5.658 0 0 0-.75-.974 6.17 6.17 0 0 0-.91-.796 5.815 5.815 0 0 0-2.174-.959 5.923 5.923 0 0 0-1.175-.12h-19.28ZM27.475 48.464H13.013c-.866 0-1.728-.094-2.585-.271a12.884 12.884 0 0 1-2.487-.802 13.326 13.326 0 0 1-4.298-3.058 13.973 13.973 0 0 1-1.65-2.14 14.362 14.362 0 0 1-1.224-2.438 14.387 14.387 0 0 1-.754-2.646 14.768 14.768 0 0 1-.255-2.75V18.974c0-.927.083-1.844.255-2.75.166-.912.42-1.792.754-2.646.333-.854.739-1.667 1.224-2.437A13.975 13.975 0 0 1 3.643 9 13.405 13.405 0 0 1 7.94 5.943c.808-.354 1.635-.62 2.487-.802.857-.177 1.719-.271 2.585-.271h14.462c.872 0 1.734.094 2.59.27.852.183 1.68.449 2.482.803.808.36 1.572.791 2.297 1.307a13.653 13.653 0 0 1 3.657 3.89c.48.771.89 1.584 1.224 2.438.333.854.582 1.735.754 2.646.171.906.254 1.823.254 2.75v15.385c0 .927-.083 1.844-.254 2.75a14.786 14.786 0 0 1-.754 2.646 14.73 14.73 0 0 1-1.224 2.438 13.649 13.649 0 0 1-3.657 3.89c-.725.516-1.489.948-2.297 1.308-.802.354-1.63.62-2.482.802-.856.177-1.718.27-2.59.27ZM13.013 12.563c-.392 0-.783.041-1.175.124a5.866 5.866 0 0 0-1.13.365c-.363.162-.71.36-1.039.594-.333.234-.636.5-.915.797a6.4 6.4 0 0 0-1.307 2.078 6.85 6.85 0 0 0-.343 1.203 7.103 7.103 0 0 0-.113 1.25v15.385c0 .422.04.839.113 1.25.078.412.19.813.343 1.203a6.446 6.446 0 0 0 1.307 2.079c.279.297.582.562.915.797.328.234.676.432 1.038.593.367.162.744.282 1.131.365.392.083.784.125 1.175.125h14.462c.397 0 .789-.042 1.175-.125a5.81 5.81 0 0 0 2.174-.958c.328-.235.632-.5.916-.797.279-.297.529-.62.749-.97.22-.348.401-.718.553-1.108.152-.391.27-.792.343-1.204.078-.411.117-.828.117-1.25V18.974c0-.422-.039-.839-.117-1.25a6.447 6.447 0 0 0-.343-1.203 6.429 6.429 0 0 0-.553-1.11 6.396 6.396 0 0 0-.75-.968 6.467 6.467 0 0 0-.915-.797 5.81 5.81 0 0 0-3.349-1.084H13.013ZM75.68 99.745H61.222c-.871 0-1.733-.094-2.59-.271a12.89 12.89 0 0 1-2.487-.802 13.402 13.402 0 0 1-4.299-3.057 13.977 13.977 0 0 1-1.649-2.141 13.992 13.992 0 0 1-1.224-2.438 14.777 14.777 0 0 1-.754-2.645 14.763 14.763 0 0 1-.255-2.75V70.255a14.9 14.9 0 0 1 1.008-5.396 14.36 14.36 0 0 1 1.225-2.437 13.676 13.676 0 0 1 1.65-2.136 13.438 13.438 0 0 1 2.007-1.755 12.955 12.955 0 0 1 2.291-1.302 12.535 12.535 0 0 1 5.077-1.073H75.68a12.535 12.535 0 0 1 5.077 1.073c.803.354 1.566.787 2.291 1.302.725.516 1.39 1.1 2.007 1.755a13.676 13.676 0 0 1 1.65 2.136c.485.77.891 1.583 1.224 2.437a14.9 14.9 0 0 1 1.009 5.396v15.386c0 .927-.084 1.843-.255 2.75a14.777 14.777 0 0 1-.754 2.645c-.333.86-.74 1.672-1.224 2.438a13.977 13.977 0 0 1-1.65 2.14 13.407 13.407 0 0 1-4.298 3.058 12.89 12.89 0 0 1-2.487.802c-.857.177-1.719.27-2.59.27ZM61.222 63.844c-.396 0-.788.041-1.175.125a5.82 5.82 0 0 0-2.174.958 6.211 6.211 0 0 0-1.664 1.766 6.875 6.875 0 0 0-.9 2.313 7.106 7.106 0 0 0-.113 1.25V85.64c0 .421.039.838.112 1.25.079.411.196.812.348 1.203.147.39.333.76.553 1.11.22.348.47.671.75.968.278.302.587.568.915.797a5.826 5.826 0 0 0 2.173.958c.387.083.779.125 1.175.125H75.68a5.714 5.714 0 0 0 2.306-.49c.367-.161.715-.359 1.042-.593a5.65 5.65 0 0 0 .916-.797 6.398 6.398 0 0 0 1.307-2.078c.147-.39.265-.792.343-1.203.073-.412.113-.829.113-1.25V70.255c0-.422-.04-.838-.113-1.25a7.31 7.31 0 0 0-.343-1.203 6.397 6.397 0 0 0-1.307-2.078 6.207 6.207 0 0 0-.916-.797 5.816 5.816 0 0 0-3.348-1.083H61.222ZM27.475 99.745H13.013a12.75 12.75 0 0 1-2.585-.271 12.89 12.89 0 0 1-2.487-.802 13.407 13.407 0 0 1-4.299-3.057 13.978 13.978 0 0 1-1.65-2.141A13.993 13.993 0 0 1 .77 91.036a14.386 14.386 0 0 1-.754-2.645 14.767 14.767 0 0 1-.255-2.75V70.255c0-.927.083-1.843.255-2.75.166-.906.42-1.791.754-2.646.333-.854.739-1.666 1.224-2.437a13.677 13.677 0 0 1 1.65-2.136 13.443 13.443 0 0 1 2.007-1.755A12.958 12.958 0 0 1 7.94 57.23a12.535 12.535 0 0 1 5.072-1.073h14.462c.872 0 1.734.089 2.59.271.852.177 1.68.448 2.482.802.808.354 1.572.787 2.297 1.302.72.516 1.39 1.1 2.007 1.755a13.682 13.682 0 0 1 1.65 2.136c.48.77.89 1.583 1.224 2.437a14.908 14.908 0 0 1 1.008 5.396v15.386c0 .927-.083 1.843-.254 2.75a14.785 14.785 0 0 1-.754 2.645c-.333.86-.744 1.672-1.224 2.438a13.655 13.655 0 0 1-3.657 3.89 12.861 12.861 0 0 1-4.779 2.11c-.856.177-1.718.27-2.59.27ZM13.013 63.844c-.392 0-.783.041-1.175.125a5.873 5.873 0 0 0-1.13.364 5.95 5.95 0 0 0-1.039.594c-.333.234-.636.5-.915.797a6.394 6.394 0 0 0-1.307 2.078 6.85 6.85 0 0 0-.343 1.203 7.102 7.102 0 0 0-.113 1.25v15.386c0 .421.04.838.113 1.25.078.411.19.812.343 1.203a6.442 6.442 0 0 0 1.307 2.078c.279.302.582.568.915.797.328.234.676.432 1.038.594.367.161.744.28 1.131.364.392.083.784.125 1.175.125h14.462c.397 0 .789-.042 1.175-.125a5.822 5.822 0 0 0 2.174-.958c.328-.23.632-.495.916-.797.279-.297.529-.62.749-.969.22-.349.401-.719.553-1.11.152-.39.27-.79.343-1.202.078-.412.117-.829.117-1.25V70.255c0-.422-.039-.838-.117-1.25a6.447 6.447 0 0 0-.343-1.203 6.824 6.824 0 0 0-.553-1.11 6.391 6.391 0 0 0-.75-.968 6.467 6.467 0 0 0-.915-.797 5.816 5.816 0 0 0-3.349-1.083H13.013Z"/></g></g><defs><clipPath id="a"><path fill="#fff" d="M0 0h94v100H0z"/></clipPath><clipPath id="b"><path fill="#fff" d="M0 0h94v100H0z"/></clipPath></defs></svg>