<svg xmlns="http://www.w3.org/2000/svg" width="123" height="100" fill="none"><path fill="#F5AF23" d="M64.441 12.5c0-6.938 4.963-12.5 11.154-12.5h19.52c6.134 0 11.154 5.625 11.154 12.5V26c-6.47 2.563-11.154 9.438-11.154 17.563V56.25H64.44V12.5Zm-36.25 31v12.75h30.673V12.5C58.864 5.562 53.9 0 47.71 0H28.19c-6.135 0-11.154 5.625-11.154 12.5v13.438c6.47 2.562 11.154 9.5 11.154 17.562Zm81.759-12.063c-5.466 1-9.258 6.813-9.258 13.063v18H22.613V43.75c0-3.315-1.175-6.495-3.267-8.839-2.092-2.344-4.929-3.661-7.887-3.661-2.958 0-5.795 1.317-7.887 3.661C1.48 37.255.305 40.435.305 43.75V75c0 6.875 5.02 12.5 11.154 12.5V100h11.154V87.5h78.079V100h11.154V87.5C117.981 87.5 123 81.875 123 75V43.75c0-7.563-6.079-13.625-13.05-12.313Z"/></svg>