<svg xmlns="http://www.w3.org/2000/svg" width="116" height="100" fill="none"><path fill="#F02E2C" d="M57.87-.5-.26 52.441h17.439V99.5H98.56V52.441H116L57.87-.5Zm0 32.353c13.602 0 25.926 5.47 34.878 14.353l-6.976 6.941c-7.44-7.4-17.47-11.523-27.902-11.47-10.929 0-20.81 4.352-27.903 11.47l-6.975-6.941c9.312-9.233 21.84-14.389 34.878-14.353Zm0 19.588c8.138 0 15.52 3.294 20.927 8.647l-6.976 6.883a19.643 19.643 0 0 0-13.951-5.706c-5.464 0-10.405 2.176-13.951 5.706l-6.976-6.883c5.584-5.55 13.1-8.655 20.927-8.647Zm0 19.647c5.464 0 9.882 4.353 9.882 9.765 0 5.412-4.418 9.824-9.882 9.824-5.464 0-9.882-4.412-9.882-9.824s4.418-9.765 9.882-9.765Z"/></svg>