<svg xmlns="http://www.w3.org/2000/svg" width="117" height="100" fill="none"><path fill="#0177B8" d="M0 0v100h117V0H0Zm8.976 9.346h99.048v81.308H8.976V9.346Zm20.417 11.738c-2.794 0-5.144.974-7.048 2.925-1.905 1.95-2.857 4.357-2.857 7.218 0 2.73.952 5.07 2.857 7.02 1.904 1.951 4.255 2.926 7.048 2.926 2.666 0 4.95-.975 6.855-2.925 1.905-1.95 2.857-4.29 2.857-7.02 0-2.862-.952-5.268-2.857-7.219-1.904-1.95-4.189-2.925-6.855-2.925Zm42.09 4.944L49.008 60.94 37.077 50.797 19.488 74.2v6.83h78.024V53.591l-26.03-27.564Z"/></svg>