<svg xmlns="http://www.w3.org/2000/svg" width="91" height="100" fill="none"><g fill="#0177B8" clip-path="url(#a)"><path d="M80.845 0H24.992c-5.6 0-10.155 4.694-10.155 10.465v15.698c0 5.771 4.555 10.465 10.155 10.465h55.853c5.6 0 10.155-4.694 10.155-10.465V10.465C91 4.694 86.445 0 80.845 0Z"/><path d="M54.663 65.527v-9.85c0-5.432-4.433-9.85-9.884-9.85H10.186V16.28c-5.45 0-9.884 4.418-9.884 9.85v19.699c0 5.432 4.433 9.85 9.884 9.85h34.593v9.849a4.95 4.95 0 0 0-3.494 1.442 4.916 4.916 0 0 0-1.448 3.482v24.624c0 1.306.52 2.559 1.448 3.483A4.95 4.95 0 0 0 44.779 100h9.884a4.95 4.95 0 0 0 3.494-1.442 4.916 4.916 0 0 0 1.448-3.483V70.451c0-1.306-.521-2.558-1.448-3.482a4.95 4.95 0 0 0-3.494-1.442Z"/></g><defs><clipPath id="a"><path fill="#fff" d="M0 0h91v100H0z"/></clipPath></defs></svg>