<svg xmlns="http://www.w3.org/2000/svg" width="94" height="100" fill="none"><g clip-path="url(#a)"><path fill="#179D2E" d="M43.561 0c-.84 0-1.68.84-3.362 2.521v6.723H30c-3.252-3.362-3.252-3.362-6.614 0-3.363 3.361-3.363 3.361 0 6.722 3.363 3.362 3.363 3.362 6.467 0h10.346v6.723h6.725v-6.723h10.235c3.322 3.362 3.32 3.362 6.684 0 3.362-3.361 3.362-3.361 0-6.722-3.363-3.362-3.362-3.362-6.831 0H46.924V2.52C45.243.841 44.402 0 43.56 0ZM-.152 16.387v53.781h6.725V16.387H-.152Zm13.45 10.084-3.362-3.362v40.336l3.362-3.361V26.471Zm30.263-.42c-6.725 0-10.16 0-10.346 6.722H16.661v20.168h13.581c3.232 3.361 6.594 6.723 13.32 6.723 6.724 0 10.087-3.361 13.45-6.723 13.45 0 13.45 0 13.45 6.723v6.723h20.175V52.94c0-13.445-6.725-20.168-20.175-20.168H53.649c.074-6.723-3.363-6.723-10.088-6.723ZM67.1 69.747v3.361H94v-3.361H67.1Zm13.45 6.723s-8.158 10.852-6.725 17.227c.887 3.94 2.684 6.302 6.726 6.302 4.041 0 5.838-2.361 6.725-6.302 1.434-6.374-6.725-17.227-6.725-17.227Z"/></g><defs><clipPath id="a"><path fill="#fff" d="M0 0h94v100H0z"/></clipPath></defs></svg>