<svg xmlns="http://www.w3.org/2000/svg" width="98" height="100" fill="none"><path fill="#F5AF23" d="M19.678 59.5h9.79l14.686 15h-9.79l-14.686-15Zm-9.79-50h4.895v-5c0-1.326.516-2.598 1.434-3.536A4.844 4.844 0 0 1 19.678-.5h19.58c1.299 0 2.544.527 3.462 1.464A5.055 5.055 0 0 1 44.154 4.5v5h9.79v-5c0-1.326.516-2.598 1.434-3.536A4.844 4.844 0 0 1 58.839-.5h19.58c1.299 0 2.544.527 3.462 1.464A5.055 5.055 0 0 1 83.315 4.5v5h4.895a9.687 9.687 0 0 1 6.922 2.929A10.11 10.11 0 0 1 98 19.5v65a10.11 10.11 0 0 1-2.868 7.071A9.687 9.687 0 0 1 88.21 94.5v5H73.525v-5H24.573v5H9.888v-5a9.687 9.687 0 0 1-6.923-2.929A10.11 10.11 0 0 1 .098 84.5v-65a10.11 10.11 0 0 1 2.867-7.071A9.687 9.687 0 0 1 9.888 9.5Zm68.532 15c1.298 0 2.543.527 3.46 1.465a5.054 5.054 0 0 1 1.435 3.535 5.054 5.054 0 0 1-1.434 3.535A4.844 4.844 0 0 1 78.42 34.5a4.844 4.844 0 0 1-3.462-1.465 5.055 5.055 0 0 1-1.433-3.535c0-1.326.515-2.598 1.433-3.535A4.844 4.844 0 0 1 78.42 24.5Zm-19.58 0c1.297 0 2.542.527 3.46 1.465a5.055 5.055 0 0 1 1.434 3.535 5.055 5.055 0 0 1-1.434 3.535 4.844 4.844 0 0 1-3.46 1.465 4.844 4.844 0 0 1-3.462-1.465 5.055 5.055 0 0 1-1.434-3.535c0-1.326.516-2.598 1.434-3.535a4.844 4.844 0 0 1 3.461-1.465Zm29.37-5H9.888v20H88.21v-20Zm-78.322 65H88.21v-35H9.888v35Zm9.79-60c1.299 0 2.544.527 3.462 1.465a5.055 5.055 0 0 1 1.433 3.535 5.055 5.055 0 0 1-1.433 3.535 4.844 4.844 0 0 1-3.462 1.465 4.844 4.844 0 0 1-3.461-1.465 5.054 5.054 0 0 1-1.434-3.535c0-1.326.516-2.598 1.434-3.535a4.844 4.844 0 0 1 3.461-1.465Zm34.266 35h9.79l14.686 15h-9.79l-14.686-15Z"/></svg>